<?xml version="1.0" standalone="no"?>
<!DOCTYPE svg PUBLIC "-//W3C//DTD SVG 20010904//EN"
 "http://www.w3.org/TR/2001/REC-SVG-20010904/DTD/svg10.dtd">
<svg version="1.0" xmlns="http://www.w3.org/2000/svg"
 width="320.000000pt" height="320.000000pt" viewBox="0 0 320.000000 320.000000"
 preserveAspectRatio="xMidYMid meet">
<metadata>
Created by potrace 1.11, written by Peter Selinger 2001-2013
</metadata>
<g transform="translate(0.000000,320.000000) scale(0.100000,-0.100000)"
fill="#000000" stroke="none">
<path d="M990 2005 l0 -1195 700 0 700 0 0 -100 0 -100 -900 0 -900 0 0 -100
0 -100 900 0 900 0 0 -100 0 -100 -1100 0 -1100 0 0 -105 0 -105 1200 0 1200
0 0 1600 0 1600 -200 0 -200 0 0 -95 0 -95 -100 0 -100 0 0 95 0 95 -200 0
-200 0 0 -95 0 -95 -100 0 -100 0 0 95 0 95 -200 0 -200 0 0 -1195z m1400 705
l0 -100 -600 0 -600 0 0 100 0 100 600 0 600 0 0 -100z m0 -400 l0 -100 -500
0 -500 0 0 -300 0 -300 500 0 500 0 0 -300 0 -300 -600 0 -600 0 0 100 0 100
500 0 500 0 0 100 0 100 -500 0 -500 0 0 500 0 500 600 0 600 0 0 -100z m-400
-400 l0 -100 -200 0 -200 0 0 100 0 100 200 0 200 0 0 -100z m400 0 l0 -100
-100 0 -100 0 0 100 0 100 100 0 100 0 0 -100z"/>
</g>
</svg>
